<?xml version="1.0" encoding="UTF-8"?>
<svg width="768px" height="896px" viewBox="0 0 768 896" version="1.1" xmlns="http://www.w3.org/2000/svg" xmlns:xlink="http://www.w3.org/1999/xlink">
    <title>logo</title>
    <g id="页面-1" stroke="none" stroke-width="1" fill="none" fill-rule="evenodd">
        <g id="logo" transform="translate(-0, 0)" fill="#409EFC" fill-rule="nonzero">
            <path d="M96,384 C78.326888,384 64,398.326888 64,416 L64,800 C64,817.673112 78.326888,832 96,832 L672,832 C689.673112,832 704,817.673112 704,800 L704,416 C704,398.326888 689.673112,384 672,384 L96,384 Z M96,320 L672,320 C725.019336,320 768,362.980664 768,416 L768,800 C768,853.019336 725.019336,896 672,896 L96,896 C42.980664,896 0,853.019336 0,800 L0,416 C0,362.980664 42.980664,320 96,320" id="形状"></path>
            <path d="M384,480 C401.673112,480 416,494.326888 416,512 L416,704 C416,721.673112 401.673112,736 384,736 C366.326888,736 352,721.673112 352,704 L352,512 C352,494.326888 366.326888,480 384,480 M576,320 L576,256 C576,149.961328 490.038672,64 384,64 C277.961328,64 192,149.961328 192,256 L192,320 L576,320 Z M384,0 C525.384896,0 640,114.615104 640,256 L640,384 L128,384 L128,256 C128,114.615104 242.615104,0 384,0" id="形状"></path>
        </g>
    </g>
</svg>